<svg width="124" height="34" viewBox="0 0 124 34" fill="none" xmlns="http://www.w3.org/2000/svg">
<rect width="122.148" height="2.808" transform="matrix(1 0 0 -1 0.996094 18.552)" fill="#CCCCCC"/>
<rect x="44.52" y="0.300049" width="33.696" height="33.696" rx="16.848" fill="white"/>
<path d="M61.3679 29.7839C68.3466 29.7839 74.0039 24.1266 74.0039 17.1479C74.0039 10.1693 68.3466 4.51196 61.3679 4.51196C54.3893 4.51196 48.7319 10.1693 48.7319 17.1479C48.7319 24.1266 54.3893 29.7839 61.3679 29.7839Z" fill="white"/>
<path d="M61.3682 3.45898C58.6608 3.45898 56.0141 4.26183 53.763 5.76599C51.5119 7.27016 49.7573 9.40809 48.7212 11.9094C47.6851 14.4108 47.414 17.1632 47.9422 19.8186C48.4704 22.474 49.7742 24.9131 51.6886 26.8275C53.6031 28.742 56.0422 30.0457 58.6976 30.5739C61.353 31.1021 64.1054 30.831 66.6067 29.7949C69.1081 28.7589 71.246 27.0043 72.7502 24.7532C74.2543 22.502 75.0572 19.8554 75.0572 17.148C75.0531 13.5187 73.6095 10.0392 71.0432 7.47294C68.4769 4.90664 64.9975 3.4631 61.3682 3.45898ZM61.3682 28.731C59.0773 28.731 56.8378 28.0516 54.933 26.7789C53.0282 25.5061 51.5436 23.6971 50.6669 21.5806C49.7902 19.4641 49.5608 17.1351 50.0078 14.8882C50.4547 12.6414 51.5579 10.5775 53.1778 8.95756C54.7977 7.33765 56.8616 6.23448 59.1085 5.78755C61.3553 5.34061 63.6843 5.57 65.8008 6.44668C67.9173 7.32337 69.7263 8.80799 70.9991 10.7128C72.2718 12.6176 72.9512 14.8571 72.9512 17.148C72.9477 20.2189 71.7262 23.1631 69.5548 25.3345C67.3833 27.506 64.4391 28.7275 61.3682 28.731ZM64.8303 16.3868L60.3148 22.4122H64.5272C64.8065 22.4122 65.0743 22.5231 65.2718 22.7206C65.4692 22.9181 65.5802 23.1859 65.5802 23.4652C65.5802 23.7444 65.4692 24.0123 65.2718 24.2098C65.0743 24.4072 64.8065 24.5182 64.5272 24.5182H58.2509C58.237 24.5187 58.223 24.519 58.2091 24.5191C58.0117 24.519 57.8183 24.4635 57.6509 24.3588C57.4836 24.2542 57.349 24.1046 57.2625 23.9272C57.176 23.7497 57.1412 23.5516 57.1619 23.3553C57.1826 23.159 57.258 22.9724 57.3796 22.8169L63.128 15.1465C63.2888 14.9018 63.3967 14.6264 63.4451 14.3377C63.4935 14.049 63.4811 13.7534 63.4089 13.4698C63.3366 13.1861 63.206 12.9206 63.0255 12.6902C62.8449 12.4598 62.6183 12.2696 62.3601 12.1317C62.1019 11.9938 61.8178 11.9112 61.5259 11.8892C61.234 11.8671 60.9408 11.9062 60.6648 12.0038C60.3889 12.1015 60.1363 12.2556 59.9232 12.4563C59.7101 12.657 59.5412 12.8999 59.4272 13.1695C59.374 13.2978 59.296 13.4143 59.1975 13.5123C59.0991 13.6103 58.9823 13.6879 58.8537 13.7405C58.7252 13.7932 58.5875 13.8199 58.4486 13.8191C58.3097 13.8183 58.1724 13.79 58.0444 13.7359C57.9165 13.6818 57.8005 13.603 57.7032 13.5038C57.6059 13.4047 57.5292 13.2873 57.4774 13.1585C57.4256 13.0296 57.3999 12.8917 57.4017 12.7528C57.4034 12.6139 57.4326 12.4767 57.4876 12.3492C57.7163 11.808 58.0557 11.3207 58.484 10.9185C58.9122 10.5162 59.4199 10.2081 59.9743 10.0137C60.5288 9.81934 61.1177 9.74312 61.7034 9.78992C62.2891 9.83671 62.8584 10.0055 63.375 10.2854C63.8915 10.5654 64.3438 10.9503 64.7028 11.4154C65.0617 11.8805 65.3194 12.4156 65.4593 12.9862C65.5991 13.5568 65.6181 14.1504 65.5149 14.7288C65.4118 15.3072 65.1887 15.8576 64.8602 16.3447C64.8506 16.359 64.8407 16.373 64.8303 16.3868Z" fill="#FFC000"/>
</svg>
