<svg width="124" height="35" viewBox="0 0 124 35" fill="none" xmlns="http://www.w3.org/2000/svg">
<rect width="122.148" height="2.808" transform="matrix(1 0 0 -1 0.996094 18.9519)" fill="#CCCCCC"/>
<rect x="44.6763" y="0.699951" width="33.696" height="33.696" rx="16.848" fill="white"/>
<path d="M61.5242 30.1838C68.5028 30.1838 74.1602 24.5265 74.1602 17.5479C74.1602 10.5692 68.5028 4.91187 61.5242 4.91187C54.5455 4.91187 48.8882 10.5692 48.8882 17.5479C48.8882 24.5265 54.5455 30.1838 61.5242 30.1838Z" fill="white"/>
<path d="M61.5244 3.85889C58.817 3.85889 56.1704 4.66173 53.9192 6.1659C51.6681 7.67006 49.9136 9.80799 48.8775 12.3093C47.8414 14.8107 47.5703 17.5631 48.0985 20.2185C48.6267 22.8739 49.9304 25.313 51.8449 27.2274C53.7593 29.1419 56.1984 30.4456 58.8539 30.9738C61.5093 31.502 64.2617 31.2309 66.763 30.1948C69.2643 29.1588 71.4022 27.4042 72.9064 25.1531C74.4106 22.9019 75.2134 20.2553 75.2134 17.5479C75.2093 13.9186 73.7658 10.4391 71.1995 7.87284C68.6332 5.30655 65.1537 3.863 61.5244 3.85889ZM61.5244 29.1309C59.2335 29.1309 56.9941 28.4515 55.0893 27.1788C53.1845 25.906 51.6998 24.097 50.8232 21.9805C49.9465 19.864 49.7171 17.535 50.164 15.2881C50.6109 13.0413 51.7141 10.9774 53.334 9.35746C54.9539 7.73755 57.0178 6.63438 59.2647 6.18745C61.5116 5.74052 63.8405 5.9699 65.9571 6.84659C68.0736 7.72328 69.8826 9.2079 71.1553 11.1127C72.4281 13.0175 73.1074 15.257 73.1074 17.5479C73.1039 20.6188 71.8825 23.563 69.711 25.7344C67.5395 27.9059 64.5954 29.1274 61.5244 29.1309ZM64.349 17.3564C65.2336 18.2458 65.7294 19.4498 65.7277 20.7043C65.726 21.9588 65.2269 23.1614 64.3398 24.0485C63.4527 24.9355 62.2501 25.4346 60.9956 25.4363C59.7411 25.438 58.5372 24.9422 57.6477 24.0575C57.4502 23.86 57.3393 23.5922 57.3393 23.3129C57.3393 23.0336 57.4502 22.7658 57.6477 22.5683C57.8452 22.3708 58.113 22.2599 58.3923 22.2599C58.6716 22.2599 58.9394 22.3708 59.1369 22.5683C59.443 22.8744 59.8199 23.1003 60.2342 23.226C60.6485 23.3517 61.0873 23.3732 61.5119 23.2888C61.9365 23.2043 62.3338 23.0165 62.6684 22.7418C63.0031 22.4672 63.2648 22.1142 63.4305 21.7143C63.5962 21.3143 63.6606 20.8797 63.6182 20.4488C63.5758 20.018 63.4277 19.6043 63.1872 19.2443C62.9467 18.8844 62.6211 18.5893 62.2393 18.3852C61.8575 18.1811 61.4313 18.0744 60.9983 18.0744C60.8057 18.0744 60.6168 18.0216 60.4521 17.9217C60.2874 17.8218 60.1533 17.6786 60.0643 17.5077C59.9753 17.3369 59.9349 17.1449 59.9475 16.9527C59.96 16.7605 60.0251 16.5754 60.1355 16.4176L62.6612 12.8085H58.365C58.0858 12.8085 57.8179 12.6975 57.6205 12.5C57.423 12.3026 57.312 12.0347 57.312 11.7555C57.312 11.4762 57.423 11.2083 57.6205 11.0109C57.8179 10.8134 58.0858 10.7025 58.365 10.7025H64.683C64.8756 10.7025 65.0646 10.7553 65.2292 10.8552C65.3939 10.9551 65.528 11.0982 65.617 11.2691C65.7059 11.4399 65.7463 11.6318 65.7338 11.824C65.7213 12.0162 65.6562 12.2013 65.5458 12.3591L62.7792 16.3131C63.3672 16.552 63.901 16.9068 64.349 17.3564Z" fill="#FFC000"/>
</svg>
