<svg width="124" height="34" viewBox="0 0 124 34" fill="none" xmlns="http://www.w3.org/2000/svg">
<rect width="122.148" height="2.808" transform="matrix(1 0 0 -1 0.996094 18.4519)" fill="#CCCCCC"/>
<rect x="44.52" y="0.199951" width="33.696" height="33.696" rx="16.848" fill="white"/>
<path d="M61.3679 29.6838C68.3466 29.6838 74.0039 24.0265 74.0039 17.0479C74.0039 10.0692 68.3466 4.41187 61.3679 4.41187C54.3893 4.41187 48.7319 10.0692 48.7319 17.0479C48.7319 24.0265 54.3893 29.6838 61.3679 29.6838Z" fill="white"/>
<path d="M61.3682 3.35889C58.6608 3.35889 56.0141 4.16173 53.763 5.6659C51.5119 7.17006 49.7573 9.30799 48.7212 11.8093C47.6851 14.3107 47.414 17.0631 47.9422 19.7185C48.4704 22.3739 49.7742 24.813 51.6886 26.7274C53.6031 28.6419 56.0422 29.9456 58.6976 30.4738C61.353 31.002 64.1054 30.7309 66.6067 29.6948C69.1081 28.6588 71.246 26.9042 72.7502 24.6531C74.2543 22.4019 75.0572 19.7553 75.0572 17.0479C75.0531 13.4186 73.6095 9.93913 71.0432 7.37284C68.4769 4.80655 64.9975 3.363 61.3682 3.35889ZM61.3682 28.6309C59.0773 28.6309 56.8378 27.9515 54.933 26.6788C53.0282 25.406 51.5436 23.597 50.6669 21.4805C49.7902 19.364 49.5608 17.035 50.0078 14.7881C50.4547 12.5413 51.5579 10.4774 53.1778 8.85746C54.7977 7.23755 56.8616 6.13438 59.1085 5.68745C61.3553 5.24052 63.6843 5.4699 65.8008 6.34659C67.9173 7.22328 69.7263 8.7079 70.9991 10.6127C72.2718 12.5175 72.9512 14.757 72.9512 17.0479C72.9477 20.1188 71.7262 23.063 69.5548 25.2344C67.3833 27.4059 64.4391 28.6274 61.3682 28.6309ZM62.9477 11.2564V23.3659C62.9477 23.6451 62.8367 23.913 62.6393 24.1104C62.4418 24.3079 62.174 24.4189 61.8947 24.4189C61.6154 24.4189 61.3476 24.3079 61.1501 24.1104C60.9526 23.913 60.8417 23.6451 60.8417 23.3659V13.2234L59.3197 14.2377C59.2047 14.3152 59.0754 14.3693 58.9394 14.3968C58.8034 14.4242 58.6633 14.4245 58.5272 14.3976C58.391 14.3708 58.2616 14.3173 58.1462 14.2402C58.0308 14.1631 57.9318 14.064 57.8548 13.9485C57.7779 13.8331 57.7245 13.7035 57.6978 13.5674C57.6711 13.4312 57.6715 13.2911 57.6991 13.1551C57.7267 13.0192 57.7809 12.89 57.8586 12.775C57.9363 12.66 58.0359 12.5616 58.1518 12.4852L61.3108 10.3802C61.4694 10.2745 61.6537 10.2138 61.844 10.2047C62.0344 10.1955 62.2236 10.2381 62.3916 10.3281C62.5596 10.418 62.7001 10.5519 62.798 10.7153C62.896 10.8788 62.9477 11.0658 62.9477 11.2564Z" fill="#FFC000"/>
</svg>
