<svg width="15" height="15" viewBox="0 0 15 15" fill="none" xmlns="http://www.w3.org/2000/svg">
<g id="credit-card-refresh">
<path id="Icon" d="M13.7998 6.5999H1.7998M7.1998 11.9999L11.8798 11.9999C12.5519 11.9999 12.8879 11.9999 13.1446 11.8691C13.3704 11.7541 13.554 11.5705 13.669 11.3447C13.7998 11.088 13.7998 10.752 13.7998 10.0799V5.5199C13.7998 4.84784 13.7998 4.51181 13.669 4.25511C13.554 4.02932 13.3704 3.84574 13.1446 3.7307C12.8879 3.5999 12.5519 3.5999 11.8798 3.5999H10.7998M7.1998 11.9999L8.3998 13.1999M7.1998 11.9999L8.3998 10.7999M4.7998 11.9999H3.7198C3.04774 11.9999 2.71171 11.9999 2.45502 11.8691C2.22922 11.7541 2.04564 11.5705 1.9306 11.3447C1.7998 11.088 1.7998 10.752 1.7998 10.0799V5.5199C1.7998 4.84784 1.7998 4.51181 1.9306 4.25511C2.04565 4.02932 2.22922 3.84574 2.45502 3.73069C2.71171 3.5999 3.04774 3.5999 3.71981 3.5999H8.3998M8.3998 3.5999L7.1998 4.7999M8.3998 3.5999L7.1998 2.3999" stroke="#344054" stroke-width="1.2" stroke-linecap="round" stroke-linejoin="round"/>
</g>
</svg>
