<svg width="56" height="56" viewBox="0 0 56 56" fill="none" xmlns="http://www.w3.org/2000/svg">
<rect x="4" y="4" width="48" height="48" rx="24" fill="#FEF0C7"/>
<path d="M28 36C30.1217 36 32.1566 35.1571 33.6569 33.6569C35.1571 32.1566 36 30.1217 36 28C36 25.8783 35.1571 23.8434 33.6569 22.3431C32.1566 20.8429 30.1217 20 28 20C25.8783 20 23.8434 20.8429 22.3431 22.3431C20.8429 23.8434 20 25.8783 20 28C20 30.1217 20.8429 32.1566 22.3431 33.6569C23.8434 35.1571 25.8783 36 28 36ZM28 38C22.477 38 18 33.523 18 28C18 22.477 22.477 18 28 18C33.523 18 38 22.477 38 28C38 33.523 33.523 38 28 38ZM27 32H29V34H27V32ZM27 22H29V30H27V22Z" fill="#DC6803"/>
<rect x="4" y="4" width="48" height="48" rx="24" stroke="#FFFAEB" stroke-width="8"/>
</svg>
