<svg width="15" height="15" viewBox="0 0 15 15" fill="none" xmlns="http://www.w3.org/2000/svg">
<g id="flag-05">
<path id="Icon" d="M9.05473 4.63343H12.627C12.9103 4.63343 13.0519 4.63343 13.1347 4.69299C13.207 4.74496 13.2541 4.82494 13.2644 4.91336C13.2763 5.0147 13.2075 5.13852 13.0699 5.38616L12.2174 6.92071C12.1675 7.01051 12.1425 7.05542 12.1327 7.10297C12.1241 7.14506 12.1241 7.18847 12.1327 7.23056C12.1425 7.27811 12.1675 7.32302 12.2174 7.41282L13.0699 8.94737C13.2075 9.19501 13.2763 9.31883 13.2644 9.42017C13.2541 9.50859 13.207 9.58857 13.1347 9.64054C13.0519 9.7001 12.9103 9.7001 12.627 9.7001H8.16807C7.81337 9.7001 7.63602 9.7001 7.50054 9.63107C7.38137 9.57035 7.28448 9.47346 7.22376 9.35429C7.15473 9.21882 7.15473 9.04146 7.15473 8.68676V7.16676M4.93807 13.5001L2.40473 3.36676M3.35476 7.16676H8.0414C8.3961 7.16676 8.57345 7.16676 8.70893 7.09774C8.8281 7.03702 8.92498 6.94013 8.9857 6.82096C9.05473 6.68548 9.05473 6.50813 9.05473 6.15343V3.11343C9.05473 2.75873 9.05473 2.58138 8.9857 2.4459C8.92498 2.32673 8.8281 2.22985 8.70893 2.16913C8.57345 2.1001 8.3961 2.1001 8.0414 2.1001H3.38591C2.94351 2.1001 2.72231 2.1001 2.57102 2.19176C2.43842 2.2721 2.3399 2.39829 2.29412 2.54642C2.24188 2.71543 2.29553 2.93002 2.40283 3.35921L3.35476 7.16676Z" stroke="#344054" stroke-width="1.2" stroke-linecap="round" stroke-linejoin="round"/>
</g>
</svg>
