<svg width="887" height="245" xmlns="http://www.w3.org/2000/svg" xmlns:xlink="http://www.w3.org/1999/xlink" xml:space="preserve" overflow="hidden"><g transform="translate(-150 -151)"><path d="M337.199 184.372C336.201 184.133 335.005 183.096 335.005 182.498 335.005 182.219 336.201 180.863 337.637 179.467 340.588 176.556 342.822 173.724 344.218 171.092L345.175 169.297 345.414 140.184C345.653 114.061 345.773 110.392 346.531 104.49 348.206 91.249 348.325 89.0954 347.608 85.0275 346.571 79.0851 346.81 77.7291 348.525 80.0822 350.32 82.6346 353.43 91.3686 354.906 97.989 356.98 107.441 357.578 119.405 357.777 156.017 357.857 172.288 357.817 173.923 357.179 174.881 356.222 176.316 350.559 180.464 347.209 182.139 343.619 183.974 339.392 184.891 337.199 184.372Z" stroke="#000000" stroke-width="0.133299" fill="#FFC000" transform="matrix(1.00139 0 0 -1 150 395.936)"/><path d="M455.447 183.575C451.02 182.139 443.044 181.381 430.721 181.302 424.898 181.302 419.913 181.102 419.674 180.943 418.956 180.464 419.035 178.789 419.833 177.433 421.229 175.08 428.727 171.092 431.758 171.092 432.555 171.092 435.187 171.73 437.62 172.488 441.569 173.684 447.431 174.92 453.094 175.678L454.889 175.918 455.368 173.884C455.647 172.727 455.846 171.052 455.846 170.135L455.846 168.42 452.775 167.782C446.913 166.545 444.48 166.306 434.789 165.907 426.772 165.628 424.818 165.429 423.622 164.83 420.75 163.435 421.787 160.643 426.254 157.732 427.77 156.774 429.205 155.737 429.445 155.458 429.764 155.059 429.803 153.983 429.564 151.949 429.006 146.804 430.362 143.015 433.313 141.26 434.709 140.463 435.267 140.383 437.501 140.582 457.721 142.337 461.749 142.856 464.341 143.853 467.412 145.089 468.17 147.562 466.415 150.553 464.381 154.062 461.509 154.262 451.18 151.789 444.799 150.234 438.458 149.237 438.019 149.715 437.82 149.875 437.62 151.63 437.58 153.584 437.421 157.133 437.421 157.133 438.378 157.133 441.688 157.133 463.105 159.207 464.022 159.606 466.494 160.723 466.574 163.275 464.141 165.788L462.945 167.024 463.543 168.858C463.902 169.856 465.019 171.85 466.016 173.285 467.172 174.92 467.97 176.476 468.09 177.433 468.289 178.789 468.13 179.148 466.774 180.663 464.78 182.857 461.629 184.652 459.834 184.612 459.077 184.572 457.082 184.133 455.447 183.575Z" stroke="#000000" stroke-width="0.133299" fill="#FFC000" transform="matrix(1.00139 0 0 -1 150 395.936)"/><path d="M775.497 184.253C773.144 183.335 773.343 182.219 776.374 179.427 779.246 176.755 782.476 173.086 783.314 171.411 783.992 170.095 784.071 169.018 784.071 162.557 784.071 157.692 783.912 155.099 783.633 154.9 782.356 154.142 778.528 153.504 773.901 153.305 768.159 153.065 767.441 152.786 767.879 150.912 768.438 148.678 775.896 142.776 778.169 142.776 778.448 142.776 780.003 143.374 781.559 144.132L784.43 145.528 784.63 144.252C784.749 143.534 784.949 141.38 785.068 139.386 785.228 137.432 785.587 134.361 785.906 132.606 786.544 128.937 786.624 126.464 786.105 125.667 785.826 125.228 784.869 125.069 782.556 125.069 777.371 125.029 776.893 123.752 780.083 118.448 782.316 114.739 782.875 112.426 783.633 103.493 784.63 92.0067 784.63 91.7674 783.593 91.5282 783.074 91.4085 780.522 90.8103 777.89 90.1722 773.423 89.0954 765.806 87.8989 765.566 88.218 765.486 88.2579 765.327 91.249 765.167 94.8383L764.928 101.299 767.919 101.299C771.509 101.299 779.046 103.054 780.163 104.171 781.519 105.527 780.881 108.438 778.807 110.352 778.288 110.831 777.012 111.628 775.935 112.067 773.503 113.144 772.027 112.905 769.554 111.03 768.119 109.953 765.128 108.478 764.33 108.478 764.25 108.478 763.732 109.275 763.173 110.233 761.259 113.503 756.593 116.534 752.206 117.332 750.172 117.73 749.693 117.69 748.337 117.012 745.825 115.776 745.984 114.659 749.414 109.435 751.009 107.042 752.645 104.21 753.083 103.094 754.16 100.262 755.197 95.1973 755.995 88.7365 757.191 78.8857 759.385 76.6922 763.572 81.1988L765.247 82.9536 768.557 82.156C772.545 81.1988 774.54 81.159 780.083 81.9965 782.396 82.3155 785.667 82.7542 787.381 82.9536 793.483 83.6715 795.118 86.3436 791.649 89.9329L790.492 91.1293 792.367 95.1175 794.241 99.1057 794.281 108.757 794.321 118.448 792.486 120.123C791.489 121.08 790.054 122.317 789.296 122.875L787.94 123.872 789.535 126.265C795.318 134.8 796.355 140.024 796.474 161.201 796.554 177.513 796.793 176.396 792.805 179.068 786.624 183.296 778.847 185.649 775.497 184.253Z" stroke="#000000" stroke-width="0.133299" fill="#FFC000" transform="matrix(1.00139 0 0 -1 150 395.936)"/><path d="M556.108 183.694C554.832 183.136 554.234 182.219 554.593 181.381 554.712 181.102 556.348 179.547 558.222 177.912 560.096 176.276 562.25 173.963 563.048 172.767L564.523 170.573 564.842 159.367C565.002 153.185 565.082 145.288 565.042 141.779L564.922 135.398 561.333 134.72C555.67 133.683 536.128 131.131 534.692 131.29 533.216 131.41 533.256 131.21 533.815 139.027L534.134 143.454 532.778 144.451C527.274 148.599 518.58 149.955 516.665 147.003 515.868 145.807 516.187 145.009 518.54 142.696 521.451 139.745 524.642 134.52 525.4 131.529 525.639 130.492 525.639 130.492 522.727 130.213 521.172 130.094 515.27 129.814 509.686 129.655 502.986 129.456 499.197 129.216 498.639 128.897 497.443 128.219 497.482 126.823 498.679 125.507 500.035 124.032 504.661 121.12 508.689 119.166 513.076 117.052 514.273 117.092 522.289 119.365 525.758 120.363 530.145 121.519 532.02 121.958 536.965 123.154 549.289 125.108 555.949 125.826 559.139 126.145 562.489 126.544 563.367 126.664L565.042 126.863 565.321 123.354C565.64 119.365 565.839 118.01 567.076 111.948 567.873 108.159 567.913 107.241 567.554 104.21 567.275 102.137 567.275 100.581 567.475 100.382 567.993 99.8634 569.628 102.615 571.941 107.76 575.61 115.976 576.249 118.408 576.887 126.863L577.126 129.894 579 129.735C580.037 129.655 583.627 129.216 586.937 128.778 592.081 128.1 593.198 128.06 594.115 128.498 595.83 129.336 596.748 130.971 596.788 133.164 596.827 134.84 596.628 135.358 595.671 136.355 594.195 137.91 591.802 139.027 589.13 139.386 587.136 139.665 586.737 139.546 583.347 137.871 581.313 136.873 579.08 135.956 578.362 135.837L577.046 135.597 577.126 155.299C577.166 168.858 577.046 175.24 576.727 175.798 576.009 177.154 573.138 179.347 569.947 181.022 564.244 183.934 559.06 184.971 556.108 183.694Z" stroke="#000000" stroke-width="0.133299" fill="#FFC000" transform="matrix(1.00139 0 0 -1 150 395.936)"/><path d="M665.743 183.774C663.789 182.817 664.147 182.059 668.335 177.951 674.357 172.089 674.078 172.966 674.437 157.732 674.756 144.65 675.234 136.873 676.232 128.817 676.511 126.305 676.79 123.354 676.79 122.317L676.79 120.402 674.237 119.246C669.651 117.132 664.147 116.015 655.653 115.417 650.747 115.058 649.91 114.779 650.229 113.463 650.548 112.147 650.269 112.187 648.554 113.742 646.52 115.497 642.492 117.252 640.378 117.252 637.905 117.252 636.908 116.414 636.908 114.301 636.908 112.905 637.347 111.908 639.142 109.036 641.814 104.769 643.09 101.14 645.244 91.4085 646.879 84.1501 647.796 81.5976 649.391 79.8429 651.146 77.9286 653.14 79.2446 654.257 83.0733 655.015 85.7055 654.855 85.7055 659.162 83.6715 662.552 82.1161 664.626 81.9167 670.489 82.6745 673.161 83.0334 676.67 83.3923 678.266 83.512 684.407 83.9108 685.923 86.5828 682.333 90.6906L680.778 92.4853 682.333 95.5961C683.729 98.308 684.008 99.2652 684.407 103.094 684.647 105.527 685.285 108.757 685.803 110.352 686.322 111.908 686.76 113.383 686.76 113.623 686.76 114.5 684.128 116.973 681.536 118.488 680.02 119.405 678.784 120.323 678.784 120.562 678.784 120.761 679.821 122.596 681.137 124.59 683.889 128.817 684.527 130.293 685.644 134.6 686.361 137.512 686.481 139.506 686.76 156.535 687 173.604 687 175.359 686.401 176.276 685.444 177.672 680.02 181.222 676.431 182.697 673.998 183.734 672.722 184.013 670.01 184.133 668.016 184.213 666.261 184.053 665.743 183.774ZM656.251 107.281 658.245 106.364 664.626 107.401C673.201 108.837 672.642 108.917 672.961 106.404 673.52 101.937 673.958 96.2342 673.998 94.0407 673.998 91.4085 674.317 91.6079 668.614 90.7704 660.159 89.5341 655.214 89.1751 654.855 89.7335 654.695 90.0127 654.416 91.8871 654.257 93.8812 654.137 95.8752 653.738 99.9033 653.419 102.815 653.1 105.766 652.861 108.318 652.861 108.518 652.861 108.877 653.021 108.797 656.251 107.281Z" stroke="#000000" stroke-width="0.133299" fill="#FFC000" transform="matrix(1.00139 0 0 -1 150 395.936)"/><path d="M60.8194 183.216C60.3807 183.136 57.0705 182.777 53.4413 182.458 39.5625 181.182 29.9112 179.188 19.4223 175.359 16.5907 174.322 12.3633 169.975 12.3633 168.101 12.3633 167.263 12.802 167.343 17.5479 168.898 23.3706 170.853 24.8462 171.291 28.5153 172.089 30.2701 172.448 32.5035 172.966 33.5005 173.166 34.4975 173.405 36.372 173.724 37.6881 173.884 39.0042 174.043 41.3572 174.362 42.8727 174.601 52.4044 176.117 58.0277 176.436 75.9743 176.436 94.2401 176.436 96.7925 176.276 113.264 174.442 132.247 172.328 148.838 169.138 166.904 164.113 168.021 163.794 169.696 163.355 170.693 163.116 171.69 162.836 173.046 162.398 173.764 162.079 174.442 161.76 175.24 161.52 175.559 161.52 175.838 161.48 178.151 160.763 180.663 159.885 183.176 159.008 185.688 158.17 186.247 158.051 186.805 157.931 187.603 157.572 188.042 157.293 188.48 156.974 189.118 156.734 189.477 156.734 189.876 156.734 190.674 156.495 191.312 156.176 191.91 155.857 194.582 154.701 197.254 153.584 205.908 149.995 217.075 143.972 222.14 140.184 223.337 139.306 224.812 138.269 225.411 137.871 227.405 136.634 233.945 130.054 235.54 127.741 236.418 126.464 237.375 125.427 237.694 125.427 238.292 125.427 240.845 129.854 240.885 130.971 240.885 131.848 237.734 135.876 235.022 138.429 233.945 139.466 231.353 141.579 229.279 143.135 227.205 144.69 225.371 146.126 225.131 146.286 224.932 146.445 222.659 147.801 220.146 149.317 217.634 150.792 215.281 152.148 214.962 152.348 213.406 153.305 203.516 158.011 199.408 159.805 198.65 160.124 197.493 160.643 196.895 160.962 196.257 161.281 195.579 161.52 195.34 161.52 195.14 161.52 194.303 161.799 193.505 162.158 192.668 162.517 191.431 163.036 190.714 163.355 189.996 163.674 189.238 163.913 188.999 163.913 188.759 163.913 188.002 164.152 187.324 164.472 185.928 165.11 180.544 166.904 175.878 168.3 174.242 168.819 172.169 169.417 171.291 169.696 169.257 170.334 165.987 171.291 162.916 172.089 161.6 172.448 159.606 172.966 158.489 173.285 157.373 173.604 156.136 173.884 155.737 173.884 155.339 173.884 154.102 174.123 152.986 174.442 149.476 175.439 135.996 178.111 129.814 179.068 108.996 182.299 98.667 183.136 77.9684 183.256 68.9951 183.335 61.2581 183.296 60.8194 183.216Z" stroke="#000000" stroke-width="0.133299" fill="#FFC000" transform="matrix(1.00139 0 0 -1 150 395.936)"/><path d="M753.083 173.086C752.605 172.887 751.887 172.248 751.528 171.69 750.69 170.374 750.97 169.457 753.562 164.91 754.519 163.195 755.476 160.962 755.716 159.965 756.314 157.173 757.191 137.671 756.713 137.193 755.875 136.355 741.318 133.164 740.76 133.683 740.56 133.922 739.364 146.086 739.524 146.206 739.563 146.246 741.797 146.644 744.429 147.123 751.249 148.319 752.764 148.878 753.562 150.593 753.921 151.35 754.08 152.308 753.961 152.706 753.203 155.099 750.212 157.054 746.822 157.412 745.027 157.572 744.549 157.452 742.953 156.376 741.956 155.698 740.6 155.02 739.962 154.9 738.846 154.701 738.726 154.78 737.888 156.854 735.575 162.398 727.599 166.665 723.491 164.551 720.66 163.076 721.098 160.483 725.047 155.538 726.363 153.903 727.639 151.909 727.838 151.151 728.038 150.393 728.756 146.445 729.394 142.377 731.747 127.82 732.744 124.59 735.137 123.234 736.094 122.716 736.333 122.716 737.33 123.234 737.928 123.593 738.846 124.71 739.404 125.747 740.122 127.103 740.56 127.541 741.079 127.382 743.671 126.584 746.383 126.544 752.964 127.302 762.535 128.419 764.091 128.738 765.167 129.854 766.404 131.051 766.364 132.287 765.048 134.959L764.011 137.113 765.128 141.42C766.085 145.049 766.324 146.884 766.523 152.547 766.643 156.655 766.922 159.686 767.241 160.204 768.717 162.836 767.002 166.266 762.495 169.696 758.587 172.647 755.037 173.923 753.083 173.086Z" stroke="#000000" stroke-width="0.133299" fill="#FFC000" transform="matrix(1.00139 0 0 -1 150 395.936)"/><path d="M540.395 170.653C535.37 168.619 531.342 167.861 523.844 167.662 520.135 167.542 515.549 167.582 513.674 167.782 511.8 167.941 509.806 168.061 509.168 167.981 507.892 167.822 507.174 166.705 507.533 165.309 508.091 163.076 514.871 157.851 517.902 157.293 518.899 157.093 520.574 157.492 524.522 158.848 527.433 159.845 532.419 161.201 535.609 161.839L541.392 163.036 542.269 156.176C543.306 147.881 543.386 145.568 542.549 142.377 541.831 139.506 542.15 138.788 543.705 139.984 545.061 141.061 548.212 145.288 549.368 147.602 550.764 150.274 551.881 153.823 552.32 156.974 552.559 158.489 553.037 160.643 553.436 161.76 554.274 164.432 553.795 165.668 551.003 168.021 547.773 170.773 545.899 171.889 544.583 171.85 543.944 171.85 542.03 171.291 540.395 170.653Z" stroke="#000000" stroke-width="0.133299" fill="#FFC000" transform="matrix(1.00139 0 0 -1 150 395.936)"/><path d="M636.988 170.853C635.672 170.175 635.074 168.898 635.473 167.622 635.592 167.183 636.51 165.628 637.507 164.113 639.7 160.802 639.78 159.566 638.025 156.655 634.436 150.673 625.941 140.662 620.597 136.156 616.848 132.925 614.734 131.689 612.102 131.21 608.034 130.453 606.758 129.416 608.672 128.379 610.626 127.302 617.805 129.097 624.824 132.407 629.57 134.64 634.755 137.91 638.783 141.221L641.614 143.574 643.728 141.659C644.885 140.622 647.437 137.91 649.391 135.597 651.385 133.284 653.539 131.011 654.177 130.532 659.083 126.903 663.988 135.198 660.279 140.782 659.083 142.616 656.889 143.813 652.462 145.169 649.232 146.126 646.48 147.402 646.48 147.921 646.48 148.08 647.756 149.636 649.312 151.311 654.018 156.535 654.337 157.412 652.662 161.042 651.306 163.913 649.91 165.668 647.317 167.662 642.891 171.052 639.501 172.129 636.988 170.853Z" stroke="#000000" stroke-width="0.133299" fill="#FFC000" transform="matrix(1.00139 0 0 -1 150 395.936)"/><path d="M4.38697 166.027C3.27029 164.751 1.9542 162.876 1.47562 161.839 0.997039 160.763 0.478579 159.925 0.319052 159.925 0.119645 159.925 0 158.13 0 155.937 0 153.584 0.159526 151.949 0.398816 151.949 0.598223 151.949 0.917276 151.47 1.03692 150.872 1.43574 149.277 3.46969 145.647 5.10484 143.613 10.1698 137.352 21.7354 128.658 31.1076 124.072 32.9422 123.194 33.7398 122.755 35.016 122.038 35.3749 121.798 35.9732 121.519 36.2922 121.399 36.6113 121.28 38.047 120.602 39.4827 119.964 40.9185 119.326 42.6334 118.568 43.2715 118.289 43.9495 118.01 45.106 117.491 45.8638 117.172 46.6215 116.813 48.3364 116.135 49.6525 115.617 50.9686 115.098 52.2049 114.54 52.4442 114.38 52.6436 114.221 53.0425 114.061 53.3615 114.061 53.6806 114.061 54.4782 113.822 55.1562 113.503 56.4723 112.905 66.6421 109.515 70.7897 108.278 72.1058 107.88 73.9005 107.321 74.7779 107.042 75.6553 106.803 77.5297 106.244 78.9655 105.886 80.4012 105.527 82.475 104.968 83.5518 104.689 84.6685 104.37 86.6227 103.891 87.9388 103.572 89.2549 103.253 91.249 102.735 92.3258 102.456 93.4425 102.177 95.1973 101.897 96.2342 101.778L98.1485 101.618 97.9092 103.134C97.63 104.729 97.0717 106.803 96.4735 108.358 96.1544 109.236 95.5163 109.475 91.1293 110.472 86.0644 111.589 78.128 113.623 73.382 115.058 72.1856 115.417 70.4707 115.936 69.5933 116.215 68.7159 116.454 67.7986 116.773 67.5593 116.933 67.3201 117.092 66.4427 117.371 65.5653 117.611 63.8902 118.01 61.936 118.687 59.942 119.525 59.264 119.804 58.5062 120.043 58.2669 120.043 58.0277 120.043 57.1901 120.323 56.3526 120.682 53.5609 121.918 52.4841 122.357 48.8549 123.832 38.6452 127.98 26.8403 134.68 20.3396 139.984 14.6365 144.611 9.77098 150.553 8.05607 154.94 6.7001 158.41 6.22152 161.839 6.73998 164.232 7.25844 166.785 7.29832 168.3 6.81975 168.3 6.62034 168.3 5.50365 167.263 4.38697 166.027Z" stroke="#000000" stroke-width="0.133299" fill="#FFC000" transform="matrix(1.00139 0 0 -1 150 395.936)"/><path d="M315.184 160.922C312.352 159.367 306.689 158.051 301.385 157.692 296.639 157.373 296.32 157.293 296.32 156.136 296.32 153.823 303.299 148.758 306.49 148.758 307.088 148.758 309.481 149.157 311.714 149.636 313.987 150.114 315.942 150.393 316.101 150.274 316.46 149.875 316.979 142.935 317.138 136.195L317.258 129.854 312.871 128.498C308.564 127.222 300.547 125.667 300.149 126.066 299.67 126.544 299.231 136.435 299.51 139.585 300.109 145.448 299.989 148 299.112 149.436 297.676 151.789 295.084 154.023 292.013 155.458 289.381 156.734 288.543 156.934 286.11 156.934 283.837 156.934 283.079 156.774 282.401 156.176 280.966 154.9 281.324 153.544 283.917 150.433 288.184 145.368 288.822 143.294 290.737 128.219 291.175 124.71 291.734 121.12 291.973 120.243 293.409 114.979 296.519 112.785 298.314 115.776 298.753 116.454 299.391 117.93 299.75 118.967 300.268 120.482 300.547 120.841 301.066 120.642 301.425 120.482 303.06 120.004 304.695 119.605 307.447 118.847 308.165 118.847 314.067 119.246 323.001 119.884 323.599 119.964 325.114 120.961 326.949 122.237 327.069 123.832 325.433 126.664L324.197 128.857 325.394 132.327C326.111 134.361 326.949 138.269 327.467 141.779 328.026 145.847 328.624 148.439 329.302 149.915 330.738 152.986 330.259 154.222 326.43 157.851 321.366 162.677 319.332 163.235 315.184 160.922Z" stroke="#000000" stroke-width="0.133299" fill="#FFC000" transform="matrix(1.00139 0 0 -1 150 395.936)"/><path d="M135.597 148.559C127.98 147.801 122.636 146.565 116.654 144.291 114.899 143.613 113.224 142.896 112.945 142.656 112.665 142.457 111.748 141.899 110.871 141.42 106.165 138.907 102.894 133.962 100.821 126.225 100.103 123.513 100.103 111.509 100.86 108.278 101.658 104.769 102.894 100.462 103.533 99.0259 103.852 98.3479 104.091 97.6699 104.091 97.5104 104.091 96.9919 108.877 87.5799 109.475 86.9418 109.794 86.5828 110.073 86.1441 110.073 85.9846 110.073 85.8251 111.19 84.2298 112.546 82.4352 122.875 68.7558 136.076 61.4176 150.274 61.4176 155.977 61.4176 163.076 62.6938 166.984 64.4486 167.662 64.7676 168.38 65.0069 168.579 65.0069 169.178 65.0069 176.795 68.9951 178.151 70.032 178.829 70.5505 179.547 70.9892 179.666 70.9892 180.265 70.9892 185.409 75.2565 188.759 78.5268 190.714 80.4012 193.625 83.7513 195.26 85.9447 196.895 88.1382 198.371 90.1323 198.57 90.3317 198.849 90.7305 202 96.3937 202.638 97.7098 208.222 109.315 209.378 122.317 205.43 128.817 203.316 132.367 197.733 136.794 192.07 139.506 187.483 141.659 187.005 141.859 183.655 142.975 169.337 147.761 149.915 149.995 135.597 148.559Z" stroke="#000000" stroke-width="0.133299" fill="#FFC000" transform="matrix(1.00139 0 0 -1 150 395.936)"/><path d="M466.415 138.549C458.319 136.116 450.941 135.318 423.741 134.002 413.332 133.523 396.782 133.523 392.953 134.002 388.287 134.6 386.532 133.444 387.888 130.572 388.725 128.857 391.916 126.584 397.42 123.792 403.123 120.921 403.88 120.881 413.013 123.154 420.631 125.069 427.211 126.225 435.108 127.023 451.778 128.698 464.062 128.937 471.4 127.661 481.051 126.026 481.61 126.066 483.165 128.339 485.039 131.131 484.202 134.52 481.091 136.554 479.097 137.831 473.394 139.585 471.28 139.546 470.363 139.546 468.17 139.107 466.415 138.549Z" stroke="#000000" stroke-width="0.133299" fill="#FFC000" transform="matrix(1.00139 0 0 -1 150 395.936)"/><path d="M241.563 123.752C237.774 118.129 228.84 112.466 219.149 109.515 217.833 109.116 216.158 108.518 215.44 108.239 214.722 107.919 213.606 107.68 212.928 107.68 211.372 107.68 210.096 106.364 209.418 104.091 209.139 103.094 208.461 101.259 207.942 99.983 206.706 97.0318 206.746 96.7526 208.102 97.0318 215.839 98.6271 222.858 100.781 227.883 103.054 229 103.572 230.196 104.091 230.515 104.25 230.834 104.37 231.672 104.849 232.31 105.287 232.988 105.726 233.786 106.205 234.105 106.364 235.461 106.962 239.329 110.193 240.685 111.828 241.483 112.785 242.639 114.62 243.277 115.896 244.354 117.93 244.474 118.608 244.474 121.718 244.474 125.148 244.434 125.228 243.517 125.228 242.879 125.228 242.28 124.749 241.563 123.752Z" stroke="#000000" stroke-width="0.133299" fill="#FFC000" transform="matrix(1.00139 0 0 -1 150 395.936)"/><path d="M456.444 113.224C454.49 112.586 451.698 111.868 450.263 111.668 445.517 110.99 434.629 110.751 427.371 111.23 419.554 111.708 418.278 111.509 418.038 109.714 417.719 107.561 426.533 101.339 430.84 100.661 431.598 100.502 434.23 100.98 437.501 101.818 443.124 103.293 449.066 104.091 454.012 104.091L456.923 104.091 457.162 98.8265C457.282 95.4764 457.76 91.6877 458.399 88.5769 458.957 85.865 459.435 82.3155 459.435 80.7203 459.435 79.0851 459.595 77.769 459.794 77.769 460.432 77.769 461.509 79.4042 464.102 84.1899 466.893 89.2948 467.611 91.6877 468.17 97.7098 468.409 100.462 468.887 102.615 469.446 103.971 470.323 105.965 470.323 106.125 469.725 107.441 468.608 109.754 462.466 114.5 460.632 114.46 460.313 114.42 458.438 113.902 456.444 113.224Z" stroke="#000000" stroke-width="0.133299" fill="#FFC000" transform="matrix(1.00139 0 0 -1 150 395.936)"/><path d="M532.419 111.628C530.026 111.19 528.75 109.754 529.228 108.079 529.627 106.723 530.744 105.048 532.02 103.891 534.014 102.137 538.042 96.4735 540.235 92.3657 543.147 86.9817 546.776 82.9137 550.405 80.9595 552.639 79.7631 553.197 79.6435 556.108 79.6833 564.324 79.7232 572.859 82.7143 575.371 86.5031 576.528 88.218 576.528 89.2549 575.371 90.9698 573.417 93.8812 569.867 94.2401 563.327 92.2061 559.219 90.9299 554.553 89.9728 550.884 89.574 549.089 89.4144 548.611 89.4942 547.773 90.2519 546.218 91.6079 546.098 93.4425 547.374 97.8294 548.81 102.974 548.411 104.928 545.221 107.8 541.831 110.871 536.686 112.386 532.419 111.628Z" stroke="#000000" stroke-width="0.133299" fill="#FFC000" transform="matrix(1.00139 0 0 -1 150 395.936)"/></g></svg>