<svg width="79" height="32" viewBox="0 0 79 32" fill="none" xmlns="http://www.w3.org/2000/svg">
<rect x="0.952613" y="1.35593" width="76.5439" height="29.536" rx="14.768" stroke="#C1554C" stroke-width="1.248"/>
<path d="M14.7846 16.1241C14.7846 16.0413 14.7518 15.962 14.6933 15.9035C14.6348 15.845 14.5554 15.8121 14.4726 15.8121C14.3899 15.8121 14.3105 15.845 14.252 15.9035C14.1935 15.962 14.1606 16.0413 14.1606 16.1241C14.1605 16.9804 14.4805 17.8058 15.0578 18.4382C15.635 19.0707 16.4279 19.4645 17.2806 19.5424V20.8041C17.2806 20.8868 17.3135 20.9662 17.372 21.0247C17.4305 21.0832 17.5099 21.1161 17.5926 21.1161C17.6754 21.1161 17.7547 21.0832 17.8133 21.0247C17.8718 20.9662 17.9046 20.8868 17.9046 20.8041V20.3635C17.6984 19.9145 17.592 19.4262 17.5926 18.9321C16.8479 18.9321 16.1337 18.6362 15.6071 18.1096C15.0805 17.583 14.7846 16.8688 14.7846 16.1241ZM19.4646 13.0041V15.8745C19.0449 16.0893 18.6737 16.388 18.3742 16.7522C18.0747 17.1165 17.8533 17.5383 17.7237 17.9917C17.4674 18.0097 17.2102 17.9747 16.968 17.889C16.7259 17.8033 16.5039 17.6687 16.316 17.4935C16.1281 17.3183 15.9783 17.1063 15.8759 16.8707C15.7735 16.6351 15.7206 16.381 15.7206 16.1241V13.0041C15.7206 12.5076 15.9179 12.0314 16.2689 11.6804C16.62 11.3293 17.0962 11.1321 17.5926 11.1321C18.0891 11.1321 18.5653 11.3293 18.9163 11.6804C19.2674 12.0314 19.4646 12.5076 19.4646 13.0041ZM22.5846 18.9321C22.5846 19.3458 22.4203 19.7426 22.1277 20.0352C21.8352 20.3277 21.4384 20.4921 21.0246 20.4921C20.6109 20.4921 20.2141 20.3277 19.9216 20.0352C19.629 19.7426 19.4646 19.3458 19.4646 18.9321C19.4646 18.5183 19.629 18.1216 19.9216 17.829C20.2141 17.5364 20.6109 17.3721 21.0246 17.3721C21.4384 17.3721 21.8352 17.5364 22.1277 17.829C22.4203 18.1216 22.5846 18.5183 22.5846 18.9321ZM23.8326 18.9321C23.8326 19.6768 23.5368 20.391 23.0102 20.9176C22.4836 21.4442 21.7694 21.7401 21.0246 21.7401C20.2799 21.7401 19.5657 21.4442 19.0391 20.9176C18.5125 20.391 18.2166 19.6768 18.2166 18.9321C18.2166 18.1874 18.5125 17.4731 19.0391 16.9465C19.5657 16.4199 20.2799 16.1241 21.0246 16.1241C21.7694 16.1241 22.4836 16.4199 23.0102 16.9465C23.5368 17.4731 23.8326 18.1874 23.8326 18.9321ZM18.8406 18.9321C18.8406 19.2189 18.8971 19.5029 19.0069 19.7679C19.1166 20.0328 19.2775 20.2736 19.4803 20.4764C19.6831 20.6792 19.9239 20.8401 20.1889 20.9498C20.4538 21.0596 20.7378 21.1161 21.0246 21.1161C21.3114 21.1161 21.5954 21.0596 21.8604 20.9498C22.1254 20.8401 22.3662 20.6792 22.569 20.4764C22.7718 20.2736 22.9326 20.0328 23.0424 19.7679C23.1521 19.5029 23.2086 19.2189 23.2086 18.9321C23.2086 18.3528 22.9785 17.7973 22.569 17.3878C22.1594 16.9782 21.6039 16.7481 21.0246 16.7481C20.4454 16.7481 19.8899 16.9782 19.4803 17.3878C19.0707 17.7973 18.8406 18.3528 18.8406 18.9321Z" fill="#C1554C"/>
<path d="M39.6352 18.1318V13.2911H41.3606C41.7357 13.2911 42.0469 13.3557 42.2943 13.4849C42.5432 13.6141 42.7292 13.793 42.8521 14.0215C42.975 14.2484 43.0364 14.5107 43.0364 14.8086C43.0364 15.1048 42.9742 15.3656 42.8497 15.5909C42.7268 15.8147 42.5409 15.9888 42.2919 16.1133C42.0445 16.2378 41.7333 16.3 41.3583 16.3H40.0512V15.6713H41.2921C41.5284 15.6713 41.7207 15.6374 41.8688 15.5697C42.0185 15.5019 42.128 15.4034 42.1974 15.2742C42.2667 15.145 42.3014 14.9898 42.3014 14.8086C42.3014 14.6258 42.2659 14.4674 42.195 14.3335C42.1257 14.1995 42.0161 14.0971 41.8664 14.0262C41.7183 13.9537 41.5237 13.9175 41.2826 13.9175H40.3655V18.1318H39.6352ZM42.0248 15.9478L43.2208 18.1318H42.3888L41.2164 15.9478H42.0248ZM45.3877 18.2051C45.03 18.2051 44.7219 18.1287 44.4635 17.9758C44.2066 17.8214 44.0081 17.6047 43.8679 17.3258C43.7292 17.0454 43.6599 16.7168 43.6599 16.3402C43.6599 15.9683 43.7292 15.6406 43.8679 15.3569C44.0081 15.0733 44.2035 14.8519 44.454 14.6927C44.7062 14.5336 45.0008 14.454 45.338 14.454C45.5429 14.454 45.7414 14.4879 45.9337 14.5557C46.1259 14.6234 46.2985 14.7298 46.4513 14.8747C46.6042 15.0197 46.7247 15.208 46.8129 15.4397C46.9012 15.6697 46.9453 15.9494 46.9453 16.2787V16.5293H44.0593V15.9998H46.2528C46.2528 15.8139 46.2149 15.6492 46.1393 15.5058C46.0637 15.3609 45.9573 15.2466 45.8202 15.1631C45.6847 15.0796 45.5255 15.0378 45.3428 15.0378C45.1442 15.0378 44.9709 15.0867 44.8228 15.1844C44.6762 15.2805 44.5628 15.4066 44.4824 15.5626C44.4036 15.717 44.3642 15.8848 44.3642 16.066V16.4797C44.3642 16.7223 44.4068 16.9287 44.4918 17.0989C44.5785 17.2691 44.6991 17.3991 44.8535 17.4889C45.0079 17.5772 45.1883 17.6213 45.3948 17.6213C45.5287 17.6213 45.6508 17.6024 45.7611 17.5646C45.8714 17.5252 45.9668 17.4669 46.0471 17.3897C46.1275 17.3124 46.1889 17.2171 46.2315 17.1037L46.9004 17.2242C46.8468 17.4212 46.7507 17.5937 46.612 17.7418C46.4749 17.8884 46.3024 18.0026 46.0944 18.0846C45.888 18.1649 45.6524 18.2051 45.3877 18.2051ZM49.2587 18.2051C48.9073 18.2051 48.6048 18.1255 48.3511 17.9664C48.099 17.8057 47.9051 17.5843 47.7696 17.3022C47.6341 17.0201 47.5663 16.6971 47.5663 16.3331C47.5663 15.9644 47.6357 15.639 47.7743 15.3569C47.913 15.0733 48.1084 14.8519 48.3605 14.6927C48.6127 14.5336 48.9097 14.454 49.2516 14.454C49.5274 14.454 49.7732 14.5052 49.9891 14.6077C50.205 14.7085 50.3791 14.8503 50.5114 15.0331C50.6454 15.2159 50.725 15.4294 50.7502 15.6737H50.0623C50.0245 15.5035 49.9379 15.3569 49.8023 15.234C49.6684 15.1111 49.4888 15.0497 49.2634 15.0497C49.0665 15.0497 48.8939 15.1017 48.7458 15.2057C48.5993 15.3081 48.485 15.4546 48.4031 15.6453C48.3211 15.8344 48.2802 16.0581 48.2802 16.3166C48.2802 16.5813 48.3203 16.8098 48.4007 17.002C48.4811 17.1943 48.5945 17.3432 48.7411 17.4487C48.8892 17.5543 49.0633 17.6071 49.2634 17.6071C49.3974 17.6071 49.5187 17.5827 49.6274 17.5338C49.7377 17.4834 49.8299 17.4117 49.904 17.3187C49.9796 17.2258 50.0324 17.1139 50.0623 16.9831H50.7502C50.725 17.2179 50.6485 17.4275 50.5209 17.6118C50.3933 17.7962 50.2223 17.9412 50.008 18.0467C49.7953 18.1523 49.5455 18.2051 49.2587 18.2051ZM53.0352 18.2051C52.6948 18.2051 52.3978 18.1271 52.1441 17.9711C51.8904 17.8151 51.6935 17.5969 51.5532 17.3164C51.413 17.0359 51.3428 16.7081 51.3428 16.3331C51.3428 15.9565 51.413 15.6272 51.5532 15.3451C51.6935 15.063 51.8904 14.844 52.1441 14.688C52.3978 14.532 52.6948 14.454 53.0352 14.454C53.3756 14.454 53.6726 14.532 53.9263 14.688C54.18 14.844 54.377 15.063 54.5172 15.3451C54.6575 15.6272 54.7276 15.9565 54.7276 16.3331C54.7276 16.7081 54.6575 17.0359 54.5172 17.3164C54.377 17.5969 54.18 17.8151 53.9263 17.9711C53.6726 18.1271 53.3756 18.2051 53.0352 18.2051ZM53.0376 17.6118C53.2582 17.6118 53.441 17.5535 53.5859 17.4369C53.7309 17.3203 53.8381 17.1651 53.9074 16.9713C53.9783 16.7775 54.0138 16.564 54.0138 16.3307C54.0138 16.0991 53.9783 15.8864 53.9074 15.6926C53.8381 15.4972 53.7309 15.3404 53.5859 15.2222C53.441 15.104 53.2582 15.0449 53.0376 15.0449C52.8154 15.0449 52.631 15.104 52.4845 15.2222C52.3395 15.3404 52.2316 15.4972 52.1607 15.6926C52.0913 15.8864 52.0567 16.0991 52.0567 16.3307C52.0567 16.564 52.0913 16.7775 52.1607 16.9713C52.2316 17.1651 52.3395 17.3203 52.4845 17.4369C52.631 17.5535 52.8154 17.6118 53.0376 17.6118ZM55.5164 18.1318V14.5013H56.1995V15.078H56.2373C56.3035 14.8826 56.4201 14.729 56.5872 14.6171C56.7558 14.5037 56.9464 14.4469 57.1592 14.4469C57.2033 14.4469 57.2553 14.4485 57.3152 14.4517C57.3766 14.4548 57.4247 14.4587 57.4593 14.4635V15.1395C57.431 15.1316 57.3806 15.1229 57.3081 15.1135C57.2356 15.1024 57.1631 15.0969 57.0906 15.0969C56.9236 15.0969 56.7747 15.1324 56.6439 15.2033C56.5147 15.2726 56.4123 15.3695 56.3366 15.494C56.261 15.6169 56.2232 15.7572 56.2232 15.9147V18.1318H55.5164ZM59.3 18.2027C59.0069 18.2027 58.7454 18.1279 58.5153 17.9782C58.2868 17.8269 58.1072 17.6118 57.9764 17.3329C57.8472 17.0524 57.7826 16.716 57.7826 16.3237C57.7826 15.9313 57.848 15.5957 57.9788 15.3167C58.1111 15.0378 58.2923 14.8243 58.5224 14.6762C58.7525 14.5281 59.0132 14.454 59.3048 14.454C59.5301 14.454 59.7113 14.4918 59.8484 14.5675C59.9871 14.6415 60.0942 14.7282 60.1698 14.8275C60.2471 14.9267 60.3069 15.0142 60.3495 15.0898H60.392V13.2911H61.0988V18.1318H60.4086V17.5669H60.3495C60.3069 17.6441 60.2455 17.7324 60.1651 17.8317C60.0863 17.9309 59.9776 18.0176 59.8389 18.0917C59.7003 18.1657 59.5206 18.2027 59.3 18.2027ZM59.456 17.6C59.6593 17.6 59.8311 17.5464 59.9713 17.4393C60.1131 17.3306 60.2203 17.1801 60.2928 16.9878C60.3668 16.7956 60.4038 16.5718 60.4038 16.3166C60.4038 16.0644 60.3676 15.8438 60.2951 15.6547C60.2226 15.4657 60.1163 15.3183 59.976 15.2127C59.8358 15.1072 59.6625 15.0544 59.456 15.0544C59.2433 15.0544 59.066 15.1095 58.9242 15.2198C58.7824 15.3301 58.6752 15.4806 58.6028 15.6713C58.5318 15.862 58.4964 16.077 58.4964 16.3166C58.4964 16.5592 58.5326 16.7775 58.6051 16.9713C58.6776 17.1651 58.7848 17.3187 58.9266 17.4322C59.07 17.5441 59.2465 17.6 59.456 17.6ZM62.1074 18.1318V14.5013H62.8142V18.1318H62.1074ZM62.4643 13.9411C62.3414 13.9411 62.2359 13.9001 62.1476 13.8182C62.0609 13.7347 62.0176 13.6354 62.0176 13.5204C62.0176 13.4038 62.0609 13.3045 62.1476 13.2226C62.2359 13.139 62.3414 13.0973 62.4643 13.0973C62.5873 13.0973 62.692 13.139 62.7787 13.2226C62.8669 13.3045 62.9111 13.4038 62.9111 13.5204C62.9111 13.6354 62.8669 13.7347 62.7787 13.8182C62.692 13.9001 62.5873 13.9411 62.4643 13.9411ZM64.4717 15.9762V18.1318H63.7649V14.5013H64.4433V15.0922H64.4882C64.5717 14.9 64.7025 14.7455 64.8806 14.6289C65.0602 14.5123 65.2863 14.454 65.5589 14.454C65.8063 14.454 66.023 14.506 66.2089 14.61C66.3949 14.7124 66.5391 14.8653 66.6415 15.0686C66.7439 15.2718 66.7951 15.5232 66.7951 15.8226V18.1318H66.0884V15.9077C66.0884 15.6445 66.0198 15.4389 65.8828 15.2907C65.7457 15.141 65.5574 15.0662 65.3178 15.0662C65.154 15.0662 65.0082 15.1017 64.8806 15.1726C64.7545 15.2435 64.6545 15.3475 64.5804 15.4846C64.5079 15.6201 64.4717 15.784 64.4717 15.9762ZM69.2651 19.5689C68.9768 19.5689 68.7286 19.5311 68.5206 19.4555C68.3141 19.3798 68.1455 19.2798 68.0148 19.1553C67.884 19.0308 67.7863 18.8945 67.7217 18.7464L68.3291 18.4958C68.3717 18.5652 68.4284 18.6384 68.4993 18.7157C68.5718 18.7944 68.6695 18.8614 68.7924 18.9166C68.9169 18.9717 69.0768 18.9993 69.2722 18.9993C69.5401 18.9993 69.7615 18.9339 69.9364 18.8031C70.1113 18.6739 70.1988 18.4675 70.1988 18.1838V17.47H70.1538C70.1113 17.5472 70.0498 17.6331 69.9695 17.7277C69.8907 17.8222 69.782 17.9041 69.6433 17.9735C69.5046 18.0428 69.3242 18.0775 69.102 18.0775C68.8152 18.0775 68.5568 18.0105 68.3268 17.8766C68.0983 17.741 67.9171 17.5417 67.7831 17.2786C67.6508 17.0138 67.5846 16.6884 67.5846 16.3024C67.5846 15.9163 67.65 15.5854 67.7808 15.3097C67.9131 15.0339 68.0943 14.8227 68.3244 14.6762C68.5544 14.5281 68.8152 14.454 69.1068 14.454C69.3321 14.454 69.5141 14.4918 69.6528 14.5675C69.7914 14.6415 69.8994 14.7282 69.9766 14.8275C70.0554 14.9267 70.116 15.0142 70.1586 15.0898H70.2106V14.5013H70.9031V18.2122C70.9031 18.5242 70.8306 18.7803 70.6857 18.9804C70.5407 19.1805 70.3445 19.3286 70.0971 19.4247C69.8513 19.5209 69.574 19.5689 69.2651 19.5689ZM69.258 17.4913C69.4613 17.4913 69.6331 17.444 69.7733 17.3495C69.9151 17.2534 70.0223 17.1163 70.0948 16.9382C70.1688 16.7586 70.2058 16.5435 70.2058 16.2929C70.2058 16.0487 70.1696 15.8336 70.0971 15.6477C70.0246 15.4617 69.9183 15.3167 69.778 15.2127C69.6378 15.1072 69.4644 15.0544 69.258 15.0544C69.0453 15.0544 68.868 15.1095 68.7262 15.2198C68.5844 15.3286 68.4772 15.4767 68.4048 15.6642C68.3338 15.8517 68.2984 16.0613 68.2984 16.2929C68.2984 16.5309 68.3346 16.7397 68.4071 16.9193C68.4796 17.0989 68.5868 17.2392 68.7286 17.34C68.872 17.4409 69.0484 17.4913 69.258 17.4913Z" fill="#C1554C"/>
<path d="M27.9919 16.1239C27.9919 21.523 23.615 25.8999 18.2159 25.8999C12.8168 25.8999 8.43992 21.523 8.43992 16.1239C8.43992 10.7247 12.8168 6.34788 18.2159 6.34788C23.615 6.34788 27.9919 10.7247 27.9919 16.1239Z" stroke="#C1554C" stroke-width="1.248"/>
</svg>
