<svg width="474" height="457" xmlns="http://www.w3.org/2000/svg" xmlns:xlink="http://www.w3.org/1999/xlink" xml:space="preserve" overflow="hidden"><g transform="translate(-267 -112)"><path d="M146.182 365.009C134.809 364.473 121.709 363.401 117.601 362.627 115.993 362.329 113.313 361.972 111.646 361.734 107.18 361.198 99.7373 359.709 94.3783 358.34 83.0648 355.482 80.7426 354.767 77.8844 353.338 77.0508 352.862 75.979 352.504 75.5026 352.504 74.3117 352.504 69.1314 347.86 67.5237 345.3 65.4991 342.025 65.6182 341.012 68 341.489 69.0718 341.727 70.2627 342.144 70.5604 342.441 70.9177 342.68 72.2872 343.156 73.5377 343.513 74.8476 343.811 76.7531 344.347 77.7058 344.645 78.718 345.002 80.9808 345.657 82.7671 346.193 84.5534 346.669 87.5307 347.503 89.3765 347.979 91.2224 348.515 93.1874 348.932 93.8424 348.932 94.4378 348.932 96.8792 349.289 99.1419 349.765 112.599 352.624 129.271 354.231 149.457 354.648 173.335 355.124 201.916 353.814 216.862 351.611 220.018 351.135 223.65 350.718 224.841 350.718 226.091 350.718 229.485 350.301 232.462 349.825 235.44 349.289 240.441 348.455 243.538 347.979 252.291 346.609 264.617 344.228 270.333 342.858 271.821 342.501 274.739 341.846 276.883 341.429 279.026 340.953 281.944 340.298 283.373 340 284.862 339.643 286.886 339.166 287.839 338.869 288.851 338.571 291.173 337.916 292.96 337.38 294.746 336.904 298.081 335.951 300.343 335.236 302.606 334.581 304.809 334.046 305.286 334.046 305.702 334.046 306.536 333.807 307.131 333.51 307.667 333.212 310.168 332.378 312.609 331.604 315.051 330.89 317.611 330.116 318.266 329.818 318.921 329.52 321.184 328.746 323.328 328.091 325.471 327.377 327.912 326.424 328.806 325.948 329.639 325.471 330.771 325.114 331.247 325.114 331.783 325.114 332.914 324.757 333.867 324.28 334.76 323.804 336.725 322.97 338.214 322.434 345.002 319.874 362.091 311.538 368.343 307.786 371.023 306.179 373.464 304.869 373.821 304.869 374.179 304.869 374.536 304.69 374.655 304.452 374.893 303.856 378.525 301.296 379.002 301.296 379.24 301.296 379.776 300.939 380.193 300.581 381.205 299.629 381.919 299.093 384.956 296.83 389.958 293.138 396.329 286.708 400.2 281.587 401.51 279.8 402.879 278.371 403.296 278.371 404.011 278.371 407.881 285.517 407.881 286.886 407.881 288.018 402.82 294.27 398.83 298.081 396.21 300.641 388.589 306.595 384.301 309.513 380.848 311.776 377.037 314.217 376.263 314.574 375.786 314.813 373.821 315.944 371.856 317.075 367.093 319.814 351.79 327.317 346.252 329.58 344.942 330.116 343.096 330.949 342.203 331.426 341.25 331.902 340.179 332.259 339.821 332.259 339.405 332.259 338.452 332.617 337.618 333.033 336.785 333.45 334.403 334.403 332.259 335.177 330.116 335.951 327.853 336.785 327.198 337.082 326.543 337.38 323.089 338.511 319.457 339.702 315.884 340.834 312.133 342.084 311.121 342.441 310.168 342.799 308.382 343.335 307.25 343.573 306.119 343.811 304.392 344.347 303.38 344.645 301.534 345.3 296.771 346.669 291.471 348.039 289.863 348.515 287.005 349.289 285.159 349.765 283.314 350.301 281.349 350.718 280.753 350.718 280.158 350.718 278.312 351.075 276.645 351.552 273.608 352.385 268.546 353.517 260.21 355.124 257.769 355.601 254.256 356.315 252.469 356.673 246.158 357.983 229.664 360.424 218.529 361.734 211.384 362.567 205.608 363.103 189.054 364.413 178.039 365.247 157.317 365.545 146.182 365.009Z" stroke="#000000" stroke-width="0.133326" fill="#FFC000" transform="matrix(1.00005 0 0 -1 267 568.854)"/><path d="M55.317 340.179C51.9825 336.606 49.6603 333.272 49.1839 331.545 49.0053 330.592 48.5289 329.877 48.2312 329.877 47.8739 329.877 47.6357 327.436 47.6357 323.923 47.6357 320.41 47.8739 317.969 48.2312 317.969 48.5289 317.969 49.0053 317.254 49.1839 316.361 51.6252 306.536 69.2505 289.983 88.7216 279.324 93.0683 276.942 105.037 270.988 108.669 269.44 110.694 268.546 113.552 267.356 116.886 265.926 118.077 265.391 119.983 264.557 121.054 264.081 122.067 263.604 123.674 263.068 124.627 262.83 125.52 262.652 126.413 262.235 126.592 261.937 126.771 261.639 127.306 261.401 127.842 261.401 128.319 261.401 129.569 261.044 130.581 260.567 132.606 259.674 147.909 254.553 153.923 252.767 155.888 252.172 158.567 251.338 159.877 250.921 161.187 250.564 163.986 249.79 166.13 249.194 168.273 248.659 171.191 247.825 172.68 247.349 174.168 246.872 175.835 246.515 176.431 246.515 177.026 246.515 178.753 246.158 180.301 245.681 185.363 244.193 191.019 242.942 192.567 242.942 193.758 242.942 194.116 243.24 194.116 244.312 194.056 246.694 191.972 253.779 191.079 254.315 190.602 254.553 188.757 255.089 186.97 255.447 185.184 255.804 182.743 256.34 181.611 256.638 180.48 256.935 176.729 257.948 173.275 258.781 166.308 260.508 162.676 261.461 157.793 262.949 156.007 263.485 153.328 264.259 151.839 264.676 148.326 265.748 145.468 266.701 143.026 267.713 141.954 268.189 140.704 268.546 140.228 268.546 139.751 268.546 138.501 268.904 137.429 269.38 136.357 269.856 134.273 270.69 132.785 271.226 118.911 276.525 107.538 281.706 98.5464 286.827 97.2364 287.541 95.6287 288.434 94.9737 288.792 94.3188 289.149 93.0088 289.923 91.9965 290.578 91.0438 291.233 89.7934 291.948 89.317 292.186 88.6025 292.483 85.0893 294.984 82.4694 296.949 70.7986 306 64.606 312.49 61.331 319.219 60.6165 320.648 59.7828 322.315 59.4851 322.851 59.1874 323.447 58.5324 326.007 57.9965 328.627 57.2224 332.378 57.1629 333.986 57.6988 336.427 58.4729 340 58.5324 342.382 57.8774 342.382 57.6392 342.382 56.4483 341.37 55.317 340.179Z" stroke="#000000" stroke-width="0.133326" fill="#FFC000" transform="matrix(1.00005 0 0 -1 267 568.854)"/><path d="M249.552 312.848C239.012 311.776 233.177 310.585 224.483 307.489 219.839 305.881 217.04 304.631 214.659 303.082 213.706 302.427 212.455 301.713 211.979 301.475 211.503 301.296 209.478 299.45 207.513 297.485 200.07 289.983 196.497 277.597 197.391 262.294 197.807 255.149 199.891 245.503 202.214 240.084 202.69 239.012 203.047 237.881 203.047 237.524 203.047 236.928 208.347 225.972 209.776 223.59 214.182 216.385 220.077 208.764 225.138 203.821 228.89 200.189 236.452 194.116 238.179 193.342 238.655 193.103 239.905 192.389 240.858 191.793 245.443 188.816 253.839 185.422 258.483 184.588 260.032 184.291 262.294 183.814 263.545 183.457 266.939 182.504 277.954 182.683 283.254 183.755 290.102 185.124 294.865 186.375 296.652 187.328 297.485 187.804 298.557 188.161 298.974 188.161 300.046 188.161 307.965 192.091 312.609 194.89 320.886 199.891 331.366 209.002 336.785 215.849 338.035 217.457 339.464 219.243 339.941 219.72 343.096 222.935 353.1 240.799 353.1 243.061 353.1 243.538 353.338 244.133 353.636 244.431 353.874 244.788 354.708 246.932 355.363 249.194 360.245 265.51 359.352 278.55 352.802 286.35 350.301 289.387 344.645 294.091 340.893 296.354 339.702 297.009 332.557 300.581 328.984 302.189 326.543 303.321 317.075 306.476 313.8 307.25 312.312 307.608 309.513 308.322 307.548 308.799 295.997 311.657 275.93 313.919 263.783 313.741 260.329 313.681 253.958 313.264 249.552 312.848Z" stroke="#000000" stroke-width="0.133326" fill="#FFC000" transform="matrix(1.00005 0 0 -1 267 568.854)"/><path d="M411.632 278.074C410.918 277.895 409.727 277.002 409.012 275.99 405.916 271.821 398.354 265.271 393.888 262.83 389.66 260.567 387.576 259.555 384.956 258.424 383.349 257.709 381.443 256.935 380.788 256.638 379.716 256.161 367.927 252.35 364.473 251.398 362.865 250.921 360.96 248.182 360.245 245.145 359.948 244.074 359.173 241.692 358.459 239.786 357.744 237.881 357.268 236.214 357.387 236.035 357.804 235.678 369.415 238.476 374.238 240.084 375.25 240.382 376.858 240.858 377.811 241.156 383.944 242.823 393.769 247.289 398.949 250.743 404.785 254.613 411.454 261.877 411.454 264.259 411.454 264.795 411.87 265.629 412.347 266.165 413.061 266.998 413.24 268.427 413.121 272.834 412.942 278.252 412.883 278.431 411.632 278.074Z" stroke="#000000" stroke-width="0.133326" fill="#FFC000" transform="matrix(1.00005 0 0 -1 267 568.854)"/><path d="M174.168 122.186C172.441 121.531 168.69 121.233 160.592 120.995 148.802 120.757 148.028 120.518 149.398 118.077 149.695 117.422 151.363 116.172 153.03 115.278 156.424 113.433 158.032 113.433 164.105 115.159 165.832 115.636 168.69 116.172 170.476 116.41L173.811 116.827 174.228 114.623C174.406 113.433 174.406 112.242 174.109 111.944 173.335 111.17 166.963 110.336 158.865 109.86 151.363 109.443 150.053 108.848 151.184 106.704 151.541 106.049 152.792 104.918 153.923 104.203 155.054 103.489 156.007 102.715 156.007 102.536 156.067 102.298 156.126 100.571 156.186 98.7251 156.305 96.0455 156.602 95.0333 157.793 93.7829 159.222 92.2347 159.401 92.1751 164.343 92.592 179.289 93.7233 182.207 94.5569 182.207 97.5937 182.207 101.345 179.051 102 170.774 100.035 168.035 99.3801 164.998 98.8441 163.986 98.8441 162.378 98.8441 162.081 99.0823 161.723 100.75 161.545 101.762 161.604 102.893 161.962 103.25 162.319 103.608 166.427 104.144 171.191 104.56 181.671 105.394 183.159 106.228 180.48 109.681 179.17 111.289 179.229 111.349 182.147 116.172L183.398 118.315 182.088 119.983C181.075 121.292 177.443 123.496 176.729 123.198 176.609 123.138 175.478 122.722 174.168 122.186Z" stroke="#000000" stroke-width="0.133326" fill="#FFC000" transform="matrix(1.00005 0 0 -1 267 568.854)"/><path d="M90.7461 121.769C90.5079 121.173 91.282 119.983 92.8897 118.434 97.5937 113.849 97.6533 113.611 97.6533 91.7583 97.6533 77.8249 97.8914 70.2627 98.606 64.5464 99.3205 58.711 99.4396 55.7338 99.0228 53.2925 98.6655 51.4466 98.606 49.8389 98.8441 49.7198 99.4991 49.303 102.298 55.9124 103.548 60.8546 105.335 67.8809 105.99 76.9913 106.049 97.0578L106.049 115.814 103.846 117.72C99.1419 121.828 91.6392 124.151 90.7461 121.769Z" stroke="#000000" stroke-width="0.133326" fill="#FFC000" transform="matrix(1.00005 0 0 -1 267 568.854)"/><path d="M243.895 122.007C242.883 121.412 243.121 120.995 246.277 117.839L249.79 114.266 250.207 108.788C250.385 105.751 250.624 100.035 250.624 96.1051L250.683 88.9002 247.289 88.2452C244.074 87.6497 230.319 85.7443 229.009 85.7443 228.711 85.7443 228.652 87.4711 228.83 89.8529 229.187 94.4974 228.89 95.0928 224.9 96.7601 222.042 97.951 217.398 97.951 216.981 96.7601 216.802 96.2837 217.517 94.7951 218.708 93.366 220.732 90.8056 223.59 85.8039 223.173 85.4466 223.054 85.3275 218.708 85.0298 213.527 84.7916 205.965 84.4343 204.06 84.1962 203.762 83.4816 203.345 82.2907 205.846 80.2662 210.669 77.8844L214.42 76.0385 223.173 78.1822C231.152 80.2067 238 81.3976 247.289 82.4694L250.683 82.8266 250.683 80.8021C250.683 79.6708 251.1 76.634 251.636 74.0736 252.172 71.3941 252.469 68.3573 252.231 66.8687 252.053 65.4396 252.112 64.3082 252.41 64.3082 253.124 64.3082 257.054 73.1208 257.769 76.2767 258.067 77.7058 258.543 80.2067 258.722 81.8144L259.138 84.7321 263.962 84.2557C270.452 83.6603 271.047 83.7198 271.94 84.9107 273.131 86.5779 272.834 88.5429 271.166 89.8529 268.606 91.8774 266.284 91.9965 262.592 90.2697L259.317 88.7216 259.138 102.655 259.019 116.588 256.995 118.375C254.732 120.34 249.135 122.662 246.634 122.662 245.741 122.662 244.55 122.364 243.895 122.007Z" stroke="#000000" stroke-width="0.133326" fill="#FFC000" transform="matrix(1.00005 0 0 -1 267 568.854)"/><path d="M320.41 122.126C319.695 121.65 320.172 120.876 322.851 118.018 324.816 115.874 326.305 113.671 326.543 112.539 326.722 111.468 326.9 106.823 326.96 102.179 326.96 97.5937 327.317 90.5674 327.734 86.6375 328.151 82.7075 328.389 79.1944 328.27 78.8371 327.734 77.3485 319.755 75.0263 315.17 75.0263 312.193 75.0263 309.394 74.0736 309.93 73.2399 310.168 72.8827 309.335 73.2995 308.084 74.1331 305.405 75.9194 303.618 76.4554 301.951 75.9194 300.165 75.3836 300.403 73.7163 302.725 69.4886 303.976 67.1664 305.286 63.296 306.298 59.1279 308.441 49.6007 310.466 47.0403 312.371 51.5061 313.324 53.8879 313.443 53.9475 316.539 52.6375 318.326 51.8634 319.874 51.7443 323.923 52.1016 331.128 52.6375 333.45 53.352 333.45 54.9002 333.45 55.6147 332.855 56.8056 332.2 57.5201 330.949 58.8301 330.949 58.9492 331.902 60.4378 332.438 61.2715 333.331 64.0701 333.807 66.5709 334.224 69.0718 334.82 71.8704 334.998 72.7636 335.296 74.1331 334.998 74.6095 332.795 76.2172 331.366 77.2294 330.175 78.2417 330.175 78.4799 330.175 78.718 331.247 81.0403 332.557 83.6007L334.939 88.3643 335.236 102.06C335.653 117.958 335.713 117.601 330.294 120.459 326.781 122.305 321.898 123.138 320.41 122.126ZM320.41 69.3695C323.149 69.7864 325.471 70.0841 325.59 70.0245 325.65 69.9054 325.888 67.2855 326.126 64.1296 326.483 58.4729 326.483 58.4133 325.054 58.1156 322.494 57.5201 313.622 56.5674 313.324 56.8652 313.026 57.1629 312.074 65.4396 312.074 68.3573L312.014 70.3223 313.681 69.4291C315.17 68.655 316.063 68.655 320.41 69.3695Z" stroke="#000000" stroke-width="0.133326" fill="#FFC000" transform="matrix(1.00005 0 0 -1 267 568.854)"/><path d="M396.21 122.007C396.032 121.65 397.163 119.983 398.83 118.315 400.438 116.588 402.105 114.623 402.462 113.909 403.356 112.123 403.356 102.595 402.403 102.06 402.046 101.821 399.604 101.464 396.984 101.345 391.387 100.988 390.732 100.273 393.59 97.3555 396.508 94.3783 398.473 93.7233 401.272 94.7951L403.534 95.6883 404.011 90.5674C404.844 81.338 404.963 81.9335 401.927 81.5762 398.652 81.2189 398.294 80.2067 400.319 76.9913 401.867 74.4904 403.117 67.8214 403.117 61.9265L403.117 58.4133 400.676 57.7583C398.116 57.0438 392.102 55.972 390.792 55.972 390.256 55.972 390.018 57.2224 390.018 60.3187L390.018 64.606 394.543 65.38C399.604 66.1541 400.736 66.8091 400.736 68.7145 400.736 71.8704 395.555 74.0736 393.173 71.93 390.911 69.965 389.779 70.1436 386.862 72.8827 384.004 75.6813 381.205 76.6935 378.406 75.979 376.441 75.5026 376.501 74.669 378.823 71.0963 381.562 66.8687 382.753 63.296 383.468 57.3415 384.42 49.8389 385.969 47.8739 388.767 50.8511 389.958 52.1016 390.315 52.2207 392.876 51.6252 395.793 51.0298 406.571 51.9825 408.655 53.1138 409.905 53.7688 409.965 55.5552 408.774 56.5674 407.583 57.5797 407.643 58.5324 409.072 61.331 410.084 63.2364 410.263 64.8441 410.263 70.5009L410.263 77.289 408.179 79.0158 406.035 80.683 408.596 85.6252 411.096 90.5674 411.513 103.191C411.99 117.958 412.049 117.66 406.154 120.757 402.284 122.722 397.103 123.377 396.21 122.007Z" stroke="#000000" stroke-width="0.133326" fill="#FFC000" transform="matrix(1.00005 0 0 -1 267 568.854)"/><path d="M380.907 114.504C380.133 113.73 380.49 111.884 382.039 108.907 383.468 106.228 383.646 105.096 383.944 97.951L384.242 90.0315 381.205 89.0788C379.538 88.6025 376.977 88.007 375.489 87.8284 372.75 87.4116 372.75 87.4116 372.75 89.1384 372.75 90.1506 372.571 92.1751 372.392 93.6042L372.035 96.3433 376.263 97.0578C382.098 98.0105 383.706 99.8564 381.026 102.357 379.121 104.144 376.799 104.441 374.238 103.191 372.035 102.119 371.976 102.119 371.321 103.31 370.07 105.573 366.319 108.788 364.592 109.145 359.709 110.098 358.638 107.776 361.734 103.25 363.758 100.333 364.116 99.1419 365.426 91.8774 366.2 87.4116 367.152 83.0648 367.569 82.2312 368.522 80.2662 370.546 79.9089 371.737 81.5762 372.511 82.7075 373.286 82.8862 378.883 83.0648 385.373 83.303 389.66 84.1366 390.375 85.2084 390.553 85.5657 390.434 86.9352 390.018 88.1857 389.422 89.972 389.363 91.0438 389.898 92.7706 390.256 94.021 390.851 98.0701 391.208 101.821 391.863 109.741 391.685 110.336 387.159 113.194 384.599 114.802 381.8 115.398 380.907 114.504Z" stroke="#000000" stroke-width="0.133326" fill="#FFC000" transform="matrix(1.00005 0 0 -1 267 568.854)"/><path d="M232.939 113.135C228.413 111.527 221.744 110.753 216.147 111.17 212.396 111.468 211.145 111.349 210.788 110.753 210.074 109.562 211.086 108.014 213.884 105.99 216.683 103.965 218.886 103.727 222.757 105.156 227.52 106.823 233.594 107.895 234.07 107.121 234.725 105.99 235.321 96.7005 234.904 94.0806 234.666 92.5324 234.725 91.6988 235.142 91.6988 236.273 91.6988 239.965 97.296 240.799 100.333 243.24 109.503 243.24 109.681 239.25 112.539 236.452 114.623 236.988 114.564 232.939 113.135Z" stroke="#000000" stroke-width="0.133326" fill="#FFC000" transform="matrix(1.00005 0 0 -1 267 568.854)"/><path d="M300.046 112.778C299.45 112.004 299.569 111.349 300.998 108.669L302.725 105.513 300.522 102.238C294.925 93.7233 287.779 87.0543 283.016 85.8039 279.8 84.9107 279.741 83.958 282.837 83.958 287.124 83.958 294.27 87.1138 300.462 91.8179 302.13 93.0683 303.737 94.0806 304.095 94.0806 304.452 94.0806 306.655 91.937 308.977 89.317 311.359 86.697 313.8 84.5534 314.336 84.5534 315.825 84.5534 317.373 86.4589 317.73 88.7811 318.207 91.7583 316.42 93.6638 311.419 95.5692 309.096 96.4624 307.25 97.2364 307.25 97.3555 307.25 97.4746 308.322 98.8441 309.632 100.333 311.061 102 312.014 103.667 312.014 104.62 312.014 106.883 309.93 109.86 306.834 111.884 303.797 113.909 301.296 114.266 300.046 112.778Z" stroke="#000000" stroke-width="0.133326" fill="#FFC000" transform="matrix(1.00005 0 0 -1 267 568.854)"/><path d="M76.9913 106.585C74.014 105.275 69.1909 104.203 66.0946 104.203 63.0578 104.203 62.641 103.31 64.606 101.226 67.1664 98.5464 69.2505 97.951 73.359 98.606 75.2645 98.9632 76.9913 99.0228 77.1699 98.7846 77.3485 98.4869 77.5867 95.2715 77.8249 91.5202L78.1822 84.7916 72.4063 83.3625C69.2505 82.648 66.4519 82.1716 66.2137 82.4098 65.9755 82.648 65.7969 86.3398 65.7969 90.627L65.7969 98.3678 63.2364 100.69C60.5569 103.012 58.1156 103.846 55.0193 103.489 52.5779 103.25 52.5779 101.821 55.0193 98.9037 57.5797 95.8074 58.056 94.3188 59.2469 85.4466 60.2592 78.2417 61.331 74.7881 62.8196 74.1927 63.7128 73.8354 65.2014 75.3836 65.7969 77.289 66.0946 78.3608 66.4519 78.5394 67.4641 78.1822 68.1786 77.944 71.8109 77.7653 75.5622 77.8249 81.5762 77.944 82.5289 78.0631 83.6007 79.1349 84.7916 80.3258 84.7916 80.4448 83.7794 82.3503 82.8266 84.0771 82.8266 84.4939 83.6007 86.697 84.0175 88.007 84.7321 91.0438 85.0893 93.4851 85.4466 95.8669 86.042 98.3082 86.3398 98.9037 86.697 99.4991 86.9352 100.392 86.9352 100.869 86.9352 102 83.303 105.692 81.0998 106.823 79.6112 107.597 79.1944 107.597 76.9913 106.585Z" stroke="#000000" stroke-width="0.133326" fill="#FFC000" transform="matrix(1.00005 0 0 -1 267 568.854)"/><path d="M179.527 90.4483C173.632 88.7811 164.284 88.0666 144.455 87.7688 134.988 87.6497 127.068 87.352 126.89 87.1734 125.342 85.6252 134.69 79.1944 138.56 79.1944 139.573 79.1944 143.205 79.8494 146.599 80.683 149.993 81.4571 155.531 82.4694 158.984 82.8266 166.368 83.7198 182.504 83.8389 188.578 83.1244 192.865 82.5885 192.865 82.5885 193.58 84.1962 196.021 89.4956 188.28 92.9492 179.527 90.4483Z" stroke="#000000" stroke-width="0.133326" fill="#FFC000" transform="matrix(1.00005 0 0 -1 267 568.854)"/><path d="M173.275 72.8827C171.846 72.3468 167.737 72.1086 159.758 72.1086 149.04 72.049 148.266 71.9895 148.266 70.9772 148.266 69.4886 150.291 67.7023 154.042 65.7969L157.138 64.2487 162.081 65.4396C164.82 66.035 168.809 66.7496 170.953 66.9878L174.823 67.345 175.657 61.2119C176.074 57.8179 176.55 53.6497 176.669 51.9825 176.848 50.2557 177.145 48.8266 177.443 48.8266 178.574 48.8266 182.266 57.282 182.802 61.1524 183.1 63.3555 183.576 66.0946 183.933 67.1664 184.469 69.0123 184.35 69.2505 182.088 71.5131 179.408 74.0736 177.264 74.4308 173.275 72.8827Z" stroke="#000000" stroke-width="0.133326" fill="#FFC000" transform="matrix(1.00005 0 0 -1 267 568.854)"/><path d="M227.461 72.1086C224.96 71.4536 225.257 69.4886 228.652 65.38 230.378 63.296 232.76 59.9019 234.011 57.7583 236.988 52.697 239.667 50.5534 243.478 50.1366 248.539 49.6603 256.459 52.2207 257.828 54.7215 258.662 56.3888 258.602 56.9842 257.233 58.3538 255.744 59.8424 253.303 59.8424 248.063 58.3538 242.883 56.8652 238.893 56.627 238.119 57.8179 237.821 58.2942 237.702 59.6042 237.881 60.7356 238.893 66.8091 238.893 66.9282 237.583 68.655 235.38 71.3941 230.855 72.9422 227.461 72.1086Z" stroke="#000000" stroke-width="0.133326" fill="#FFC000" transform="matrix(1.00005 0 0 -1 267 568.854)"/></g></svg>