<svg width="133" height="132" viewBox="0 0 133 132" fill="none" xmlns="http://www.w3.org/2000/svg">
<path fill-rule="evenodd" clip-rule="evenodd" d="M96.9767 42.5166C98.8103 44.3427 98.8163 47.3096 96.9901 49.1432L57.5081 88.7856C55.682 90.6192 52.7153 90.6252 50.8817 88.7992L36.4828 74.4601C34.6491 72.634 34.643 69.6672 36.469 67.8335C38.2951 65.9998 41.2619 65.9936 43.0956 67.8197L54.1745 78.8526L90.3501 42.53C92.1763 40.6964 95.1431 40.6904 96.9767 42.5166Z" fill="#039855"/>
<path fill-rule="evenodd" clip-rule="evenodd" d="M66.2269 13.3714C41.3891 13.3714 20.552 30.715 15.2032 53.9489L15.2032 53.9489C14.3325 57.7308 13.8714 61.6727 13.8714 65.7269C13.8714 94.6201 37.3337 118.082 66.2269 118.082C95.1201 118.082 118.582 94.6201 118.582 65.7269C118.582 36.8337 95.1201 13.3714 66.2269 13.3714ZM6.07064 51.8464C12.3764 24.4558 36.924 4 66.2269 4C100.296 4 127.954 31.658 127.954 65.7269C127.954 99.7958 100.296 127.454 66.2269 127.454C32.158 127.454 4.5 99.7958 4.5 65.7269C4.5 60.9599 5.04237 56.3127 6.07064 51.8464Z" fill="#039855"/>
</svg>
